<svg width="747" height="276" viewBox="0 0 747 276" fill="none" xmlns="http://www.w3.org/2000/svg">
<path d="M233.639 89.1501C244.412 88.6687 254.215 89.4168 262.523 97.1067C268.422 102.566 271.552 109.691 271.819 117.683C272.097 125.998 271.686 134.347 271.678 142.67C271.671 149.613 272.458 164.691 271.05 170.69C269.934 175.441 267.382 179.837 264.048 183.373C258.582 189.171 251.316 192.597 243.331 192.763C238.555 192.861 233.757 192.746 228.979 192.686C227.803 192.287 226.286 192.353 225.039 192.288C226.683 192.279 232.198 192.628 233.312 191.93L233.392 191.427C230.402 189.196 233.652 187.291 232.442 184.379C232.186 183.763 231.943 183.232 231.871 182.564C231.592 180 231.945 177.456 231.858 174.896C231.608 167.527 230.986 159.809 231.551 152.462C231.797 149.263 233.338 146.391 233.762 143.3C233.975 141.748 233.886 140.127 234.01 138.562C234.509 132.282 234.925 126.047 235.11 119.747C235.215 116.185 235.132 112.505 234.889 108.948C234.718 106.436 234.114 103.689 234.387 101.194C234.826 97.1864 238.654 94.881 237.381 90.2975C237.258 89.8559 237.286 90.2042 237.314 89.6527L237.726 89.5408C236.559 89.1143 235.133 89.7238 233.955 89.2797C233.848 89.2393 233.744 89.193 233.639 89.1501Z" fill="#0066FF"/>
<path d="M82.6772 94.6989C82.6567 94.3064 82.641 93.9135 82.6303 93.5203C82.3394 79.3131 82.6399 65.0439 82.6273 50.8301C82.6212 44.2377 81.9074 29.6504 83.1873 23.9734C84.3826 18.6746 87.3922 13.5593 91.1303 9.65835C96.7871 3.75507 104.2 0.278133 112.411 0.168738C121.264 0.0507731 130.132 0.208564 138.987 0.195457C147.081 0.183358 159.031 -0.652981 166.508 1.22942C167.153 1.39846 167.791 1.58818 168.424 1.79857C169.056 2.00896 169.681 2.23985 170.298 2.49124C170.915 2.74229 171.524 3.01334 172.123 3.30439C172.723 3.5951 173.312 3.90513 173.892 4.23449C174.471 4.56385 175.039 4.9117 175.596 5.27803C176.152 5.64436 176.696 6.02833 177.228 6.42995C177.76 6.8319 178.278 7.2505 178.782 7.68572C179.287 8.12129 179.776 8.57281 180.251 9.0403C184.185 12.9306 187.354 18.1291 188.674 23.5243C190.107 29.3842 189.359 41.4832 189.362 48.001L189.469 88.9292C204.067 88.9176 219.096 88.5748 233.639 89.1505C233.744 89.1934 233.848 89.2398 233.955 89.2801C235.133 89.7242 236.558 89.1147 237.726 89.5412L237.313 89.6531C237.286 90.2047 237.258 89.8563 237.381 90.2979C238.653 94.8814 234.826 97.1868 234.387 101.195C234.114 103.689 234.718 106.437 234.889 108.948C235.132 112.505 235.214 116.186 235.109 119.747C234.925 126.047 234.509 132.282 234.009 138.562C233.885 140.127 233.975 141.748 233.762 143.3C233.337 146.391 231.797 149.264 231.551 152.463C230.986 159.809 231.608 167.528 231.858 174.897C231.945 177.457 231.592 180 231.87 182.565C231.943 183.232 232.186 183.763 232.442 184.379C233.652 187.291 230.402 189.197 233.392 191.428L233.312 191.93C232.198 192.629 226.683 192.28 225.039 192.288C226.286 192.353 227.803 192.288 228.979 192.686C218.302 192.927 207.595 192.62 196.911 192.782C197.601 190.472 198.741 188.224 199.717 186.019C202.076 177.587 202.507 169.091 200.906 160.477C199.708 151.282 195.542 141.263 190.336 133.653C188.66 131.203 186.583 129.063 184.881 126.657L184.659 126.341C170.424 111.738 153.642 104.46 134.723 97.7347C134.277 92.5493 134.53 87.1935 134.518 81.9849C134.501 73.9749 134.364 65.9286 134.58 57.9226C134.414 54.2057 134.474 19.9374 134.094 19.4096L133.149 20.5515C132.468 23.5918 128.808 29.727 127.402 33.0351C117.172 57.1044 100.797 87.8292 116.81 113.036C123.156 123.026 132.902 126.597 143.339 130.832C149.081 133.163 154.667 135.748 159.841 139.19C177.398 150.872 186.921 169.671 189.065 190.32C189.808 197.486 189.438 205.001 189.434 212.214L189.404 234.541C189.413 240.281 189.992 246.754 188.746 252.358C186.955 260.418 181.608 267.427 174.631 271.745C173.837 272.242 173.02 272.697 172.18 273.109C171.339 273.522 170.479 273.889 169.6 274.212C168.721 274.535 167.827 274.811 166.92 275.04C166.012 275.27 165.095 275.452 164.168 275.586C160.715 276.092 157.192 275.932 153.712 275.921L139.082 275.876L120.2 275.901C115.251 275.91 109.945 276.371 105.103 275.224C97.6254 273.453 91.0053 268.217 87.0535 261.706C85.1937 258.642 83.7101 255.146 83.1188 251.596C82.5254 248.032 82.7165 244.247 82.717 240.642L82.723 225.778V204.936C82.7175 200.901 82.5627 196.814 82.7906 192.789L42.0307 192.705C36.5393 192.703 28.1189 193.444 23.0258 192.309C17.5938 191.099 12.1977 188.183 8.2852 184.217C7.80629 183.727 7.34518 183.222 6.90189 182.7C6.45893 182.178 6.03462 181.641 5.62897 181.089C5.22366 180.537 4.838 179.972 4.47201 179.393C4.10635 178.814 3.76137 178.223 3.43705 177.62C3.11306 177.017 2.81042 176.403 2.52912 175.779C2.24815 175.154 1.98937 174.521 1.75277 173.878C1.5165 173.235 1.30293 172.585 1.11203 171.928C0.921136 171.27 0.753594 170.606 0.609415 169.937C-0.379171 165.555 0.137052 157.601 0.117391 152.915C0.0306822 141.934 0.0244634 130.952 0.0987375 119.972C0.215694 110.653 2.14498 103.91 9.01316 97.1853C12.5955 93.6786 16.7046 91.2764 21.5683 90.0469C29.1005 88.1423 39.8564 88.9378 47.7812 88.9353C56.8575 88.9317 65.9453 88.8299 75.02 88.9161L75.4566 88.9247C68.0465 106.725 66.7953 122.953 74.3259 141.053C84.3393 165.12 105.094 179.453 128.473 188.973C130.917 189.965 133.367 190.94 135.825 191.897L135.831 242.362C135.847 250.757 136.097 259.23 135.806 267.615C139.474 258.227 143.319 248.913 147.341 239.671C152.4 227.883 158.104 216.297 159.972 203.472C160.334 200.984 160.382 198.562 160.577 196.072C160.568 195.448 160.523 194.836 160.458 194.216C159.197 182.048 155.297 174.049 145.822 166.314C140.537 162.859 134.913 160.78 129.087 158.476C117.602 153.932 107.033 148.359 98.3867 139.326C89.8085 130.366 84.3337 118.04 82.958 105.75C82.5451 102.064 82.5975 98.3982 82.6772 94.6989Z" fill="#0066FF"/>
<path d="M200.907 160.477C200.949 160.075 201.003 159.999 201.217 159.674L201.83 159.606C203.201 166.444 203.949 179.508 200.004 185.601C199.913 185.743 199.813 185.88 199.718 186.019C202.077 177.587 202.507 169.091 200.907 160.477Z" fill="#6F99F3"/>
<path d="M185.023 125.303C185.923 126.277 186.794 127.276 187.636 128.302C188.477 129.327 189.288 130.377 190.067 131.45C190.847 132.523 191.593 133.619 192.308 134.736C193.023 135.854 193.704 136.992 194.351 138.149C194.999 139.307 195.612 140.483 196.19 141.677C196.768 142.871 197.31 144.081 197.817 145.307C198.323 146.533 198.793 147.773 199.226 149.026C199.659 150.28 200.055 151.546 200.414 152.823C201.011 154.968 201.676 157.384 201.83 159.606L201.216 159.673C201.002 159.999 200.948 160.075 200.906 160.477C199.708 151.281 195.542 141.263 190.336 133.652C188.66 131.202 186.583 129.063 184.881 126.657L184.659 126.34L185.023 125.303Z" fill="#6F99F3"/>
<path d="M82.6769 94.6987C84.1519 113.89 89.0056 130.241 104.148 143.277C112.521 150.485 122.459 154.63 132.572 158.7C136.49 160.276 140.844 161.7 144.338 164.116C152.298 169.13 158.16 176.851 160.226 186.103C160.952 189.357 161.246 192.787 160.577 196.072C160.568 195.448 160.523 194.836 160.458 194.216C159.197 182.048 155.297 174.049 145.821 166.313C140.537 162.859 134.913 160.78 129.086 158.475C117.602 153.932 107.033 148.359 98.3864 139.326C89.8082 130.365 84.3334 118.04 82.9577 105.75C82.5448 102.063 82.5972 98.398 82.6769 94.6987Z" fill="#6F99F3"/>
<path d="M135.786 14.8394C135.994 34.89 136.028 54.941 135.887 74.9924L135.901 88.8815C135.91 91.4475 136.215 94.4611 135.72 96.9636C153.562 103.832 171.948 110.619 185.023 125.303L184.659 126.341C170.424 111.738 153.642 104.46 134.723 97.7349C134.277 92.5495 134.53 87.1937 134.518 81.9851C134.501 73.975 134.364 65.9287 134.58 57.9227C134.414 54.2058 134.474 19.9376 134.094 19.4097L133.149 20.5516C133.765 18.5749 134.81 16.6608 135.786 14.8394Z" fill="#6F99F3"/>
<path fill-rule="evenodd" clip-rule="evenodd" d="M337.988 150.107L351.697 101.037H341.081L332.364 138.929L322.944 101.037H311.977L301.994 139.14L293.347 101.037H282.802L296.018 150.177L307.548 150.107L317.179 115.167L326.388 150.107H337.988ZM394.047 133.586C394.235 132.461 394.328 131.196 394.328 129.79C394.328 125.994 393.508 122.643 391.868 119.737C390.274 116.784 388.001 114.511 385.049 112.918C382.143 111.324 378.839 110.527 375.136 110.527C371.293 110.527 367.895 111.347 364.942 112.988C361.99 114.628 359.693 116.972 358.053 120.018C356.413 123.064 355.592 126.603 355.592 130.633C355.592 134.617 356.413 138.132 358.053 141.179C359.74 144.225 362.06 146.592 365.013 148.279C368.012 149.919 371.387 150.74 375.136 150.74C379.776 150.74 383.689 149.544 386.876 147.154C390.063 144.717 392.219 141.624 393.344 137.874H382.729C381.182 141.015 378.581 142.585 374.925 142.585C372.394 142.585 370.262 141.788 368.528 140.194C366.794 138.601 365.81 136.398 365.575 133.586H394.047ZM381.393 120.932C383.174 122.432 384.088 124.447 384.135 126.978H365.645C366.02 124.353 367.028 122.314 368.668 120.862C370.356 119.362 372.418 118.612 374.855 118.612C377.433 118.612 379.612 119.385 381.393 120.932ZM411.354 150.107V98.084H401.512V150.107H411.354ZM436.123 112.285C433.92 113.456 432.186 114.98 430.921 116.854V98.084H421.078V150.107H430.921V144.553C432.233 146.381 433.967 147.881 436.123 149.052C438.326 150.177 440.88 150.74 443.786 150.74C447.113 150.74 450.113 149.896 452.784 148.209C455.503 146.521 457.635 144.155 459.182 141.108C460.775 138.015 461.572 134.477 461.572 130.493C461.572 126.509 460.775 123.017 459.182 120.018C457.635 116.972 455.503 114.628 452.784 112.988C450.113 111.347 447.113 110.527 443.786 110.527C440.927 110.527 438.373 111.113 436.123 112.285ZM450.043 124.447C451.027 126.134 451.519 128.149 451.519 130.493C451.519 132.883 451.027 134.945 450.043 136.679C449.105 138.413 447.84 139.749 446.246 140.686C444.7 141.624 443.012 142.092 441.185 142.092C439.404 142.092 437.716 141.647 436.123 140.757C434.576 139.819 433.311 138.484 432.327 136.75C431.389 135.016 430.921 132.977 430.921 130.633C430.921 128.29 431.389 126.251 432.327 124.517C433.311 122.783 434.576 121.471 436.123 120.58C437.716 119.643 439.404 119.174 441.185 119.174C443.012 119.174 444.7 119.62 446.246 120.51C447.84 121.401 449.105 122.713 450.043 124.447ZM475.895 148.279C478.894 149.919 482.269 150.74 486.018 150.74C489.814 150.74 493.236 149.919 496.282 148.279C499.375 146.592 501.812 144.225 503.593 141.179C505.421 138.132 506.335 134.617 506.335 130.633C506.335 126.65 505.445 123.135 503.664 120.088C501.93 117.042 499.539 114.698 496.493 113.058C493.447 111.371 490.049 110.527 486.299 110.527C482.55 110.527 479.152 111.371 476.106 113.058C473.059 114.698 470.646 117.042 468.865 120.088C468.196 121.262 467.657 122.506 467.246 123.819C468.761 122.868 470.553 122.317 472.474 122.317C474.424 122.317 476.242 122.885 477.772 123.863C478.136 123.224 478.564 122.646 479.058 122.127C480.98 120.112 483.347 119.104 486.159 119.104C488.971 119.104 491.338 120.112 493.259 122.127C495.228 124.095 496.212 126.931 496.212 130.633C496.212 133.117 495.743 135.226 494.806 136.961C493.868 138.695 492.603 140.007 491.009 140.897C489.463 141.741 487.799 142.163 486.018 142.163C483.29 142.163 481.003 141.237 479.158 139.384C477.403 141.009 475.054 142.002 472.474 142.002C471.205 142.002 469.992 141.761 468.878 141.324C470.604 144.3 472.943 146.619 475.895 148.279ZM513.344 120.018C511.797 123.064 511.024 126.556 511.024 130.493C511.024 134.477 511.797 138.015 513.344 141.108C514.937 144.155 517.093 146.521 519.812 148.209C522.53 149.896 525.529 150.74 528.81 150.74C531.716 150.74 534.27 150.154 536.473 148.982C538.676 147.81 540.386 146.264 541.605 144.342V150.107H551.588V98.084H541.605V116.573C540.246 114.745 538.418 113.292 536.121 112.215C533.825 111.09 531.411 110.527 528.88 110.527C525.553 110.527 522.53 111.347 519.812 112.988C517.093 114.628 514.937 116.972 513.344 120.018ZM540.269 124.517C541.206 126.204 541.675 128.243 541.675 130.633C541.675 133.024 541.206 135.086 540.269 136.82C539.332 138.507 538.066 139.819 536.473 140.757C534.879 141.647 533.169 142.092 531.341 142.092C529.56 142.092 527.873 141.624 526.279 140.686C524.733 139.749 523.467 138.413 522.483 136.679C521.546 134.898 521.077 132.836 521.077 130.493C521.077 128.149 521.546 126.134 522.483 124.447C523.467 122.713 524.733 121.401 526.279 120.51C527.826 119.62 529.513 119.174 531.341 119.174C533.169 119.174 534.879 119.643 536.473 120.58C538.066 121.471 539.332 122.783 540.269 124.517ZM561.833 104.903C563.005 105.981 564.457 106.52 566.192 106.52C567.926 106.52 569.355 105.981 570.48 104.903C571.652 103.778 572.237 102.396 572.237 100.755C572.237 99.1151 571.652 97.7559 570.48 96.6779C569.355 95.5531 567.926 94.9907 566.192 94.9907C564.457 94.9907 563.005 95.5531 561.833 96.6779C560.708 97.7559 560.146 99.1151 560.146 100.755C560.146 102.396 560.708 103.778 561.833 104.903ZM561.2 150.107H571.042V111.16H561.2V150.107ZM631.403 123.603C632.668 121.307 633.301 118.846 633.301 116.222C633.301 113.316 632.622 110.715 631.262 108.418C629.95 106.122 627.958 104.317 625.287 103.005C622.615 101.693 619.382 101.037 615.585 101.037H597.518V150.107H607.36V131.266H615.585C619.616 131.266 622.943 130.563 625.568 129.157C628.239 127.751 630.184 125.9 631.403 123.603ZM621.209 121.494C619.897 122.713 617.882 123.322 615.163 123.322H607.36V109.051H615.163C620.506 109.051 623.178 111.441 623.178 116.222C623.178 118.471 622.522 120.229 621.209 121.494ZM640.078 120.018C638.531 123.064 637.758 126.556 637.758 130.493C637.758 134.477 638.531 138.015 640.078 141.108C641.672 144.155 643.804 146.521 646.475 148.209C649.194 149.896 652.193 150.74 655.474 150.74C658.38 150.74 660.934 150.154 663.137 148.982C665.387 147.763 667.144 146.24 668.409 144.412V150.107H678.322V111.16H668.409V116.714C667.097 114.933 665.34 113.456 663.137 112.285C660.981 111.113 658.45 110.527 655.544 110.527C652.217 110.527 649.194 111.347 646.475 112.988C643.804 114.628 641.672 116.972 640.078 120.018ZM667.003 124.517C667.941 126.204 668.409 128.243 668.409 130.633C668.409 133.024 667.941 135.086 667.003 136.82C666.066 138.507 664.801 139.819 663.207 140.757C661.614 141.647 659.903 142.092 658.075 142.092C656.294 142.092 654.607 141.624 653.013 140.686C651.467 139.749 650.201 138.413 649.217 136.679C648.28 134.898 647.811 132.836 647.811 130.493C647.811 128.149 648.28 126.134 649.217 124.447C650.201 122.713 651.467 121.401 653.013 120.51C654.56 119.62 656.247 119.174 658.075 119.174C659.903 119.174 661.614 119.643 663.207 120.58C664.801 121.471 666.066 122.783 667.003 124.517ZM687.724 120.018C686.177 123.064 685.404 126.556 685.404 130.493C685.404 134.477 686.177 138.015 687.724 141.108C689.317 144.155 691.473 146.521 694.191 148.209C696.91 149.896 699.909 150.74 703.19 150.74C706.096 150.74 708.65 150.154 710.853 148.982C713.055 147.81 714.766 146.264 715.985 144.342V150.107H725.967V98.084H715.985V116.573C714.625 114.745 712.798 113.292 710.501 112.215C708.205 111.09 705.791 110.527 703.26 110.527C699.933 110.527 696.91 111.347 694.191 112.988C691.473 114.628 689.317 116.972 687.724 120.018ZM714.649 124.517C715.586 126.204 716.055 128.243 716.055 130.633C716.055 133.024 715.586 135.086 714.649 136.82C713.712 138.507 712.446 139.819 710.853 140.757C709.259 141.647 707.548 142.092 705.721 142.092C703.94 142.092 702.252 141.624 700.659 140.686C699.112 139.749 697.847 138.413 696.863 136.679C695.925 134.898 695.457 132.836 695.457 130.493C695.457 128.149 695.925 126.134 696.863 124.447C697.847 122.713 699.112 121.401 700.659 120.51C702.206 119.62 703.893 119.174 705.721 119.174C707.548 119.174 709.259 119.643 710.853 120.58C712.446 121.471 713.712 122.783 714.649 124.517ZM736.213 104.903C737.384 105.981 738.837 106.52 740.571 106.52C742.305 106.52 743.735 105.981 744.86 104.903C746.031 103.778 746.617 102.396 746.617 100.755C746.617 99.1151 746.031 97.7559 744.86 96.6779C743.735 95.5531 742.305 94.9907 740.571 94.9907C738.837 94.9907 737.384 95.5531 736.213 96.6779C735.088 97.7559 734.525 99.1151 734.525 100.755C734.525 102.396 735.088 103.778 736.213 104.903ZM735.58 150.107H745.422V111.16H735.58V150.107Z" fill="white"/>
<path d="M306.307 160.446L301.2 170.21V176.126H299.153V170.21L294.024 160.446H296.296L300.165 168.387L304.035 160.446H306.307ZM313.843 176.329C312.688 176.329 311.638 176.066 310.693 175.541C309.763 175.016 309.028 174.274 308.489 173.314C307.964 172.339 307.701 171.215 307.701 169.94C307.701 168.68 307.971 167.57 308.511 166.61C309.066 165.635 309.816 164.893 310.761 164.383C311.706 163.858 312.763 163.596 313.933 163.596C315.102 163.596 316.16 163.858 317.105 164.383C318.05 164.893 318.792 165.628 319.332 166.588C319.887 167.548 320.164 168.665 320.164 169.94C320.164 171.215 319.879 172.339 319.309 173.314C318.754 174.274 317.997 175.016 317.037 175.541C316.077 176.066 315.013 176.329 313.843 176.329ZM313.843 174.529C314.578 174.529 315.267 174.357 315.912 174.012C316.557 173.667 317.075 173.149 317.465 172.459C317.87 171.769 318.072 170.93 318.072 169.94C318.072 168.95 317.877 168.11 317.487 167.42C317.097 166.73 316.587 166.22 315.957 165.89C315.327 165.545 314.645 165.373 313.91 165.373C313.16 165.373 312.47 165.545 311.841 165.89C311.226 166.22 310.731 166.73 310.356 167.42C309.981 168.11 309.793 168.95 309.793 169.94C309.793 170.945 309.973 171.792 310.333 172.482C310.708 173.172 311.203 173.689 311.818 174.034C312.433 174.364 313.108 174.529 313.843 174.529ZM333.789 163.798V176.126H331.742V174.304C331.352 174.934 330.805 175.429 330.1 175.789C329.41 176.134 328.645 176.306 327.805 176.306C326.845 176.306 325.983 176.111 325.218 175.721C324.453 175.316 323.846 174.716 323.396 173.922C322.961 173.127 322.743 172.159 322.743 171.02V163.798H324.768V170.75C324.768 171.964 325.075 172.902 325.69 173.562C326.305 174.207 327.145 174.529 328.21 174.529C329.305 174.529 330.167 174.192 330.797 173.517C331.427 172.842 331.742 171.859 331.742 170.57V163.798H333.789ZM339.293 165.8C339.653 165.096 340.163 164.548 340.823 164.158C341.497 163.768 342.315 163.573 343.275 163.573V165.688H342.735C340.44 165.688 339.293 166.933 339.293 169.422V176.126H337.246V163.798H339.293V165.8ZM363.716 160.446V176.126H361.669V169.017H353.683V176.126H351.635V160.446H353.683V167.33H361.669V160.446H363.716ZM378.46 169.49C378.46 169.88 378.437 170.292 378.392 170.727H368.539C368.614 171.942 369.026 172.894 369.776 173.584C370.541 174.259 371.463 174.596 372.543 174.596C373.428 174.596 374.163 174.394 374.748 173.989C375.348 173.569 375.768 173.014 376.008 172.324H378.212C377.882 173.509 377.222 174.476 376.232 175.226C375.243 175.961 374.013 176.329 372.543 176.329C371.373 176.329 370.323 176.066 369.394 175.541C368.479 175.016 367.759 174.274 367.234 173.314C366.709 172.339 366.447 171.215 366.447 169.94C366.447 168.665 366.702 167.548 367.211 166.588C367.721 165.628 368.434 164.893 369.349 164.383C370.278 163.858 371.343 163.596 372.543 163.596C373.713 163.596 374.748 163.851 375.648 164.361C376.547 164.871 377.237 165.575 377.717 166.475C378.212 167.36 378.46 168.365 378.46 169.49ZM376.345 169.062C376.345 168.282 376.173 167.615 375.828 167.06C375.483 166.49 375.01 166.063 374.41 165.778C373.825 165.478 373.173 165.328 372.453 165.328C371.418 165.328 370.533 165.658 369.799 166.318C369.079 166.978 368.666 167.893 368.561 169.062H376.345ZM380.397 169.917C380.397 168.657 380.652 167.555 381.162 166.61C381.672 165.65 382.369 164.908 383.254 164.383C384.154 163.858 385.151 163.596 386.246 163.596C387.326 163.596 388.263 163.828 389.058 164.293C389.853 164.758 390.445 165.343 390.835 166.048V163.798H392.905V176.126H390.835V173.832C390.43 174.551 389.823 175.151 389.013 175.631C388.218 176.096 387.288 176.329 386.224 176.329C385.129 176.329 384.139 176.059 383.254 175.519C382.369 174.979 381.672 174.222 381.162 173.247C380.652 172.272 380.397 171.162 380.397 169.917ZM390.835 169.94C390.835 169.01 390.648 168.2 390.273 167.51C389.898 166.82 389.388 166.295 388.743 165.935C388.113 165.56 387.416 165.373 386.651 165.373C385.886 165.373 385.189 165.553 384.559 165.913C383.929 166.273 383.426 166.798 383.052 167.488C382.677 168.178 382.489 168.987 382.489 169.917C382.489 170.862 382.677 171.687 383.052 172.392C383.426 173.082 383.929 173.614 384.559 173.989C385.189 174.349 385.886 174.529 386.651 174.529C387.416 174.529 388.113 174.349 388.743 173.989C389.388 173.614 389.898 173.082 390.273 172.392C390.648 171.687 390.835 170.87 390.835 169.94ZM398.412 159.479V176.126H396.364V159.479H398.412ZM404.398 165.485V172.752C404.398 173.352 404.525 173.779 404.78 174.034C405.035 174.274 405.478 174.394 406.107 174.394H407.615V176.126H405.77C404.63 176.126 403.775 175.864 403.205 175.339C402.636 174.814 402.351 173.952 402.351 172.752V165.485H400.753V163.798H402.351V160.694H404.398V163.798H407.615V165.485H404.398ZM416.214 163.573C417.144 163.573 417.984 163.776 418.734 164.181C419.484 164.571 420.069 165.163 420.488 165.958C420.923 166.753 421.141 167.72 421.141 168.86V176.126H419.116V169.152C419.116 167.923 418.809 166.985 418.194 166.34C417.579 165.68 416.739 165.35 415.674 165.35C414.594 165.35 413.732 165.688 413.087 166.363C412.457 167.038 412.142 168.02 412.142 169.31V176.126H410.095V159.479H412.142V165.553C412.547 164.923 413.102 164.436 413.807 164.091C414.527 163.746 415.329 163.573 416.214 163.573ZM426.6 173.292L424.08 179.343H422.708L424.35 173.292H426.6ZM439.914 176.284C438.879 176.284 437.949 176.104 437.124 175.744C436.314 175.369 435.677 174.859 435.212 174.214C434.747 173.554 434.507 172.797 434.492 171.942H436.674C436.749 172.677 437.049 173.299 437.574 173.809C438.114 174.304 438.894 174.551 439.914 174.551C440.889 174.551 441.654 174.312 442.209 173.832C442.778 173.337 443.063 172.707 443.063 171.942C443.063 171.342 442.898 170.855 442.568 170.48C442.239 170.105 441.826 169.82 441.331 169.625C440.836 169.43 440.169 169.22 439.329 168.995C438.294 168.725 437.462 168.455 436.832 168.185C436.217 167.915 435.685 167.495 435.235 166.925C434.8 166.34 434.582 165.56 434.582 164.586C434.582 163.731 434.8 162.973 435.235 162.313C435.67 161.654 436.277 161.144 437.057 160.784C437.852 160.424 438.759 160.244 439.779 160.244C441.249 160.244 442.448 160.611 443.378 161.346C444.323 162.081 444.856 163.056 444.976 164.271H442.726C442.651 163.671 442.336 163.146 441.781 162.696C441.226 162.231 440.491 161.999 439.576 161.999C438.722 161.999 438.024 162.223 437.484 162.673C436.944 163.108 436.674 163.723 436.674 164.518C436.674 165.088 436.832 165.553 437.147 165.913C437.477 166.273 437.874 166.55 438.339 166.745C438.819 166.925 439.486 167.135 440.341 167.375C441.376 167.66 442.209 167.945 442.838 168.23C443.468 168.5 444.008 168.927 444.458 169.512C444.908 170.082 445.133 170.862 445.133 171.852C445.133 172.617 444.931 173.337 444.526 174.012C444.121 174.686 443.521 175.234 442.726 175.654C441.931 176.074 440.994 176.284 439.914 176.284ZM459.394 169.49C459.394 169.88 459.371 170.292 459.326 170.727H449.473C449.548 171.942 449.96 172.894 450.71 173.584C451.475 174.259 452.397 174.596 453.477 174.596C454.362 174.596 455.097 174.394 455.682 173.989C456.282 173.569 456.702 173.014 456.942 172.324H459.146C458.816 173.509 458.157 174.476 457.167 175.226C456.177 175.961 454.947 176.329 453.477 176.329C452.307 176.329 451.258 176.066 450.328 175.541C449.413 175.016 448.693 174.274 448.168 173.314C447.643 172.339 447.381 171.215 447.381 169.94C447.381 168.665 447.636 167.548 448.146 166.588C448.656 165.628 449.368 164.893 450.283 164.383C451.213 163.858 452.277 163.596 453.477 163.596C454.647 163.596 455.682 163.851 456.582 164.361C457.482 164.871 458.172 165.575 458.651 166.475C459.146 167.36 459.394 168.365 459.394 169.49ZM457.279 169.062C457.279 168.282 457.107 167.615 456.762 167.06C456.417 166.49 455.944 166.063 455.344 165.778C454.76 165.478 454.107 165.328 453.387 165.328C452.352 165.328 451.468 165.658 450.733 166.318C450.013 166.978 449.6 167.893 449.495 169.062H457.279ZM461.331 169.94C461.331 168.665 461.586 167.555 462.096 166.61C462.606 165.65 463.311 164.908 464.211 164.383C465.126 163.858 466.168 163.596 467.338 163.596C468.852 163.596 470.097 163.963 471.072 164.698C472.062 165.433 472.714 166.453 473.029 167.758H470.825C470.615 167.008 470.202 166.415 469.587 165.98C468.987 165.545 468.238 165.328 467.338 165.328C466.168 165.328 465.223 165.733 464.503 166.543C463.783 167.338 463.423 168.47 463.423 169.94C463.423 171.424 463.783 172.572 464.503 173.382C465.223 174.192 466.168 174.596 467.338 174.596C468.238 174.596 468.987 174.387 469.587 173.967C470.187 173.547 470.6 172.947 470.825 172.167H473.029C472.699 173.427 472.039 174.439 471.05 175.204C470.06 175.954 468.822 176.329 467.338 176.329C466.168 176.329 465.126 176.066 464.211 175.541C463.311 175.016 462.606 174.274 462.096 173.314C461.586 172.354 461.331 171.23 461.331 169.94ZM486.694 163.798V176.126H484.647V174.304C484.257 174.934 483.71 175.429 483.005 175.789C482.315 176.134 481.55 176.306 480.71 176.306C479.75 176.306 478.888 176.111 478.123 175.721C477.358 175.316 476.751 174.716 476.301 173.922C475.866 173.127 475.648 172.159 475.648 171.02V163.798H477.673V170.75C477.673 171.964 477.98 172.902 478.595 173.562C479.21 174.207 480.05 174.529 481.115 174.529C482.21 174.529 483.072 174.192 483.702 173.517C484.332 172.842 484.647 171.859 484.647 170.57V163.798H486.694ZM492.198 165.8C492.558 165.096 493.068 164.548 493.727 164.158C494.402 163.768 495.22 163.573 496.18 163.573V165.688H495.64C493.345 165.688 492.198 166.933 492.198 169.422V176.126H490.151V163.798H492.198V165.8ZM509.791 169.49C509.791 169.88 509.768 170.292 509.723 170.727H499.87C499.945 171.942 500.357 172.894 501.107 173.584C501.872 174.259 502.795 174.596 503.874 174.596C504.759 174.596 505.494 174.394 506.079 173.989C506.679 173.569 507.099 173.014 507.339 172.324H509.543C509.214 173.509 508.554 174.476 507.564 175.226C506.574 175.961 505.344 176.329 503.874 176.329C502.705 176.329 501.655 176.066 500.725 175.541C499.81 175.016 499.09 174.274 498.565 173.314C498.04 172.339 497.778 171.215 497.778 169.94C497.778 168.665 498.033 167.548 498.543 166.588C499.053 165.628 499.765 164.893 500.68 164.383C501.61 163.858 502.675 163.596 503.874 163.596C505.044 163.596 506.079 163.851 506.979 164.361C507.879 164.871 508.569 165.575 509.049 166.475C509.543 167.36 509.791 168.365 509.791 169.49ZM507.676 169.062C507.676 168.282 507.504 167.615 507.159 167.06C506.814 166.49 506.342 166.063 505.742 165.778C505.157 165.478 504.504 165.328 503.784 165.328C502.75 165.328 501.865 165.658 501.13 166.318C500.41 166.978 499.998 167.893 499.893 169.062H507.676ZM514.54 159.479V176.126H512.493V159.479H514.54ZM528.648 163.798L521.224 181.93H519.109L521.539 175.991L516.567 163.798H518.839L522.709 173.787L526.533 163.798H528.648ZM535.938 168.275C535.938 166.745 536.283 165.373 536.973 164.158C537.663 162.928 538.6 161.969 539.785 161.279C540.985 160.589 542.312 160.244 543.767 160.244C545.477 160.244 546.969 160.656 548.244 161.481C549.519 162.306 550.448 163.476 551.033 164.991H548.581C548.146 164.046 547.516 163.318 546.691 162.808C545.882 162.298 544.907 162.043 543.767 162.043C542.672 162.043 541.69 162.298 540.82 162.808C539.95 163.318 539.268 164.046 538.773 164.991C538.278 165.92 538.03 167.015 538.03 168.275C538.03 169.52 538.278 170.615 538.773 171.559C539.268 172.489 539.95 173.209 540.82 173.719C541.69 174.229 542.672 174.484 543.767 174.484C544.907 174.484 545.882 174.237 546.691 173.742C547.516 173.232 548.146 172.504 548.581 171.559H551.033C550.448 173.059 549.519 174.222 548.244 175.046C546.969 175.856 545.477 176.261 543.767 176.261C542.312 176.261 540.985 175.924 539.785 175.249C538.6 174.559 537.663 173.607 536.973 172.392C536.283 171.177 535.938 169.805 535.938 168.275ZM559.457 176.329C558.302 176.329 557.253 176.066 556.308 175.541C555.378 175.016 554.643 174.274 554.103 173.314C553.578 172.339 553.316 171.215 553.316 169.94C553.316 168.68 553.586 167.57 554.126 166.61C554.681 165.635 555.43 164.893 556.375 164.383C557.32 163.858 558.377 163.596 559.547 163.596C560.717 163.596 561.774 163.858 562.719 164.383C563.664 164.893 564.407 165.628 564.946 166.588C565.501 167.548 565.779 168.665 565.779 169.94C565.779 171.215 565.494 172.339 564.924 173.314C564.369 174.274 563.612 175.016 562.652 175.541C561.692 176.066 560.627 176.329 559.457 176.329ZM559.457 174.529C560.192 174.529 560.882 174.357 561.527 174.012C562.172 173.667 562.689 173.149 563.079 172.459C563.484 171.769 563.687 170.93 563.687 169.94C563.687 168.95 563.492 168.11 563.102 167.42C562.712 166.73 562.202 166.22 561.572 165.89C560.942 165.545 560.26 165.373 559.525 165.373C558.775 165.373 558.085 165.545 557.455 165.89C556.84 166.22 556.345 166.73 555.97 167.42C555.595 168.11 555.408 168.95 555.408 169.94C555.408 170.945 555.588 171.792 555.948 172.482C556.323 173.172 556.818 173.689 557.433 174.034C558.048 174.364 558.722 174.529 559.457 174.529ZM574.477 163.573C575.977 163.573 577.192 164.031 578.121 164.946C579.051 165.845 579.516 167.15 579.516 168.86V176.126H577.491V169.152C577.491 167.923 577.184 166.985 576.569 166.34C575.954 165.68 575.114 165.35 574.05 165.35C572.97 165.35 572.107 165.688 571.462 166.363C570.833 167.038 570.518 168.02 570.518 169.31V176.126H568.47V163.798H570.518V165.553C570.923 164.923 571.47 164.436 572.16 164.091C572.865 163.746 573.637 163.573 574.477 163.573ZM588.867 163.573C590.366 163.573 591.581 164.031 592.511 164.946C593.441 165.845 593.906 167.15 593.906 168.86V176.126H591.881V169.152C591.881 167.923 591.574 166.985 590.959 166.34C590.344 165.68 589.504 165.35 588.439 165.35C587.359 165.35 586.497 165.688 585.852 166.363C585.222 167.038 584.907 168.02 584.907 169.31V176.126H582.86V163.798H584.907V165.553C585.312 164.923 585.86 164.436 586.55 164.091C587.255 163.746 588.027 163.573 588.867 163.573ZM608.498 169.49C608.498 169.88 608.476 170.292 608.431 170.727H598.577C598.652 171.942 599.065 172.894 599.815 173.584C600.579 174.259 601.502 174.596 602.582 174.596C603.466 174.596 604.201 174.394 604.786 173.989C605.386 173.569 605.806 173.014 606.046 172.324H608.251C607.921 173.509 607.261 174.476 606.271 175.226C605.281 175.961 604.051 176.329 602.582 176.329C601.412 176.329 600.362 176.066 599.432 175.541C598.517 175.016 597.797 174.274 597.272 173.314C596.748 172.339 596.485 171.215 596.485 169.94C596.485 168.665 596.74 167.548 597.25 166.588C597.76 165.628 598.472 164.893 599.387 164.383C600.317 163.858 601.382 163.596 602.582 163.596C603.751 163.596 604.786 163.851 605.686 164.361C606.586 164.871 607.276 165.575 607.756 166.475C608.251 167.36 608.498 168.365 608.498 169.49ZM606.383 169.062C606.383 168.282 606.211 167.615 605.866 167.06C605.521 166.49 605.049 166.063 604.449 165.778C603.864 165.478 603.211 165.328 602.492 165.328C601.457 165.328 600.572 165.658 599.837 166.318C599.117 166.978 598.705 167.893 598.6 169.062H606.383ZM610.435 169.94C610.435 168.665 610.69 167.555 611.2 166.61C611.71 165.65 612.415 164.908 613.315 164.383C614.23 163.858 615.272 163.596 616.442 163.596C617.957 163.596 619.202 163.963 620.176 164.698C621.166 165.433 621.819 166.453 622.134 167.758H619.929C619.719 167.008 619.307 166.415 618.692 165.98C618.092 165.545 617.342 165.328 616.442 165.328C615.272 165.328 614.327 165.733 613.607 166.543C612.888 167.338 612.528 168.47 612.528 169.94C612.528 171.424 612.888 172.572 613.607 173.382C614.327 174.192 615.272 174.596 616.442 174.596C617.342 174.596 618.092 174.387 618.692 173.967C619.292 173.547 619.704 172.947 619.929 172.167H622.134C621.804 173.427 621.144 174.439 620.154 175.204C619.164 175.954 617.927 176.329 616.442 176.329C615.272 176.329 614.23 176.066 613.315 175.541C612.415 175.016 611.71 174.274 611.2 173.314C610.69 172.354 610.435 171.23 610.435 169.94ZM627.362 165.485V172.752C627.362 173.352 627.49 173.779 627.745 174.034C628 174.274 628.442 174.394 629.072 174.394H630.579V176.126H628.734C627.595 176.126 626.74 175.864 626.17 175.339C625.6 174.814 625.315 173.952 625.315 172.752V165.485H623.718V163.798H625.315V160.694H627.362V163.798H630.579V165.485H627.362ZM644.308 169.49C644.308 169.88 644.285 170.292 644.24 170.727H634.387C634.462 171.942 634.874 172.894 635.624 173.584C636.389 174.259 637.311 174.596 638.391 174.596C639.276 174.596 640.011 174.394 640.596 173.989C641.196 173.569 641.616 173.014 641.856 172.324H644.06C643.73 173.509 643.07 174.476 642.081 175.226C641.091 175.961 639.861 176.329 638.391 176.329C637.221 176.329 636.172 176.066 635.242 175.541C634.327 175.016 633.607 174.274 633.082 173.314C632.557 172.339 632.295 171.215 632.295 169.94C632.295 168.665 632.55 167.548 633.06 166.588C633.57 165.628 634.282 164.893 635.197 164.383C636.127 163.858 637.191 163.596 638.391 163.596C639.561 163.596 640.596 163.851 641.496 164.361C642.396 164.871 643.085 165.575 643.565 166.475C644.06 167.36 644.308 168.365 644.308 169.49ZM642.193 169.062C642.193 168.282 642.021 167.615 641.676 167.06C641.331 166.49 640.858 166.063 640.258 165.778C639.674 165.478 639.021 165.328 638.301 165.328C637.266 165.328 636.382 165.658 635.647 166.318C634.927 166.978 634.514 167.893 634.409 169.062H642.193ZM646.245 169.917C646.245 168.657 646.5 167.555 647.01 166.61C647.52 165.65 648.217 164.908 649.102 164.383C650.002 163.858 651.007 163.596 652.117 163.596C653.077 163.596 653.969 163.821 654.794 164.271C655.619 164.706 656.248 165.283 656.683 166.003V159.479H658.753V176.126H656.683V173.809C656.278 174.544 655.679 175.151 654.884 175.631C654.089 176.096 653.159 176.329 652.094 176.329C650.999 176.329 650.002 176.059 649.102 175.519C648.217 174.979 647.52 174.222 647.01 173.247C646.5 172.272 646.245 171.162 646.245 169.917ZM656.683 169.94C656.683 169.01 656.496 168.2 656.121 167.51C655.746 166.82 655.236 166.295 654.591 165.935C653.961 165.56 653.264 165.373 652.499 165.373C651.734 165.373 651.037 165.553 650.407 165.913C649.777 166.273 649.275 166.798 648.9 167.488C648.525 168.178 648.337 168.987 648.337 169.917C648.337 170.862 648.525 171.687 648.9 172.392C649.275 173.082 649.777 173.614 650.407 173.989C651.037 174.349 651.734 174.529 652.499 174.529C653.264 174.529 653.961 174.349 654.591 173.989C655.236 173.614 655.746 173.082 656.121 172.392C656.496 171.687 656.683 170.87 656.683 169.94Z" fill="white"/>
</svg>
