<svg width="129" height="108" viewBox="0 0 129 108" fill="none" xmlns="http://www.w3.org/2000/svg">
<path d="M88.3371 24.776C91.3311 24.6422 94.0554 24.8501 96.3644 26.9872C98.0038 28.5045 98.8735 30.4845 98.9478 32.7056C99.0251 35.0166 98.9108 37.3368 98.9085 39.6497C98.9067 41.5792 99.1253 45.7698 98.734 47.4368C98.4239 48.7574 97.7146 49.9791 96.7882 50.9616C95.269 52.5729 93.2497 53.525 91.0307 53.5711C89.7033 53.5986 88.3699 53.5665 87.042 53.5498C86.7152 53.439 86.2936 53.4572 85.9471 53.4392C86.404 53.4368 87.9366 53.5339 88.2464 53.3397L88.2685 53.2C87.4375 52.58 88.3408 52.0505 88.0044 51.2411C87.9332 51.07 87.8658 50.9224 87.8457 50.7369C87.7682 50.0242 87.8664 49.3174 87.8422 48.6059C87.7727 46.5579 87.5998 44.4129 87.7568 42.3712C87.8252 41.4821 88.2534 40.6838 88.3713 39.8247C88.4305 39.3935 88.4057 38.9429 88.4401 38.5081C88.5788 36.7628 88.6945 35.03 88.7458 33.2792C88.775 32.2893 88.7521 31.2665 88.6846 30.278C88.637 29.5801 88.4691 28.8164 88.5451 28.1231C88.6671 27.0093 89.7307 26.3686 89.377 25.0948C89.3429 24.9721 89.3508 25.0689 89.3583 24.9156L89.473 24.8845C89.1485 24.766 88.7524 24.9354 88.425 24.812C88.3953 24.8008 88.3664 24.7879 88.3371 24.776Z" fill="#0066FF"/>
<path d="M46.383 26.318C46.3773 26.2089 46.373 26.0997 46.37 25.9904C46.2891 22.0421 46.3726 18.0765 46.3691 14.1263C46.3675 12.2942 46.1691 8.2402 46.5248 6.66251C46.857 5.1899 47.6934 3.76828 48.7322 2.68418C50.3043 1.04358 52.3645 0.0772965 54.6464 0.0468943C57.1067 0.0141105 59.5714 0.0579626 62.0323 0.05432C64.2816 0.0509575 67.6026 -0.181471 69.6807 0.34167C69.8599 0.388651 70.0373 0.441375 70.213 0.499845C70.3887 0.558314 70.5624 0.622481 70.7339 0.692345C70.9054 0.762116 71.0745 0.837444 71.2412 0.918329C71.4078 0.999122 71.5716 1.08528 71.7327 1.17682C71.8936 1.26835 72.0514 1.36502 72.2062 1.46683C72.3609 1.56864 72.5121 1.67535 72.6598 1.78696C72.8076 1.89867 72.9516 2.015 73.0918 2.13596C73.232 2.257 73.3681 2.38249 73.5 2.51241C74.5934 3.59358 75.4739 5.03831 75.8407 6.53768C76.2392 8.16623 76.0311 11.5287 76.032 13.3401L76.0618 24.7145C80.1187 24.7113 84.2956 24.616 88.3371 24.776C88.3664 24.7879 88.3953 24.8008 88.425 24.812C88.7524 24.9355 89.1485 24.7661 89.4729 24.8846L89.3583 24.9157C89.3508 25.069 89.3429 24.9722 89.377 25.0949C89.7307 26.3687 88.6671 27.0094 88.545 28.1232C88.4691 28.8164 88.6369 29.5801 88.6846 30.2781C88.7521 31.2665 88.7749 32.2894 88.7458 33.2792C88.6945 35.0301 88.5788 36.7629 88.4401 38.5081C88.4056 38.943 88.4304 39.3936 88.3713 39.8248C88.2533 40.6839 87.8252 41.4822 87.7568 42.3713C87.5998 44.413 87.7727 46.558 87.8421 48.606C87.8664 49.3174 87.7682 50.0242 87.8456 50.7369C87.8658 50.9224 87.9332 51.0701 88.0044 51.2412C88.3408 52.0505 87.4375 52.5801 88.2685 53.2001L88.2463 53.3398C87.9366 53.5339 86.404 53.4368 85.9471 53.4392C86.2936 53.4573 86.7152 53.4391 87.042 53.5499C84.0748 53.6167 81.0993 53.5316 78.13 53.5764C78.3218 52.9344 78.6387 52.3099 78.9099 51.6971C79.5655 49.3536 79.6851 46.9924 79.2403 44.5986C78.9074 42.043 77.7496 39.2588 76.3026 37.1437C75.8368 36.4629 75.2597 35.8683 74.7866 35.1996L74.7251 35.1116C70.7689 31.0534 66.1049 29.0308 60.8471 27.1617C60.7233 25.7206 60.7935 24.2322 60.7903 22.7846C60.7854 20.5585 60.7475 18.3224 60.8074 16.0974C60.7613 15.0644 60.7779 5.54086 60.6724 5.39417L60.4097 5.7115C60.2206 6.55646 59.2035 8.2615 58.8127 9.18085C55.9696 15.87 51.4187 24.4088 55.869 31.4142C57.6326 34.1903 60.3412 35.1828 63.2418 36.3599C64.8375 37.0075 66.3899 37.7261 67.8277 38.6827C72.7072 41.9291 75.3537 47.1536 75.9494 52.8923C76.1561 54.8837 76.0531 56.9722 76.0521 58.9768L76.0437 65.1817C76.0463 66.7769 76.2071 68.576 75.8609 70.1334C75.363 72.3735 73.8772 74.3213 71.938 75.5211C71.7175 75.6594 71.4905 75.7858 71.2569 75.9004C71.0232 76.015 70.7842 76.1171 70.5398 76.2068C70.2956 76.2965 70.0473 76.3733 69.795 76.4371C69.5428 76.501 69.2878 76.5516 69.0302 76.5888C68.0708 76.7292 67.0915 76.6848 66.1245 76.6817L62.0586 76.6693L56.8109 76.6761C55.4356 76.6788 53.961 76.8069 52.6154 76.4883C50.5373 75.9961 48.6975 74.5407 47.5992 72.7314C47.0824 71.8799 46.6701 70.9083 46.5057 69.9217C46.3408 68.9312 46.3939 67.8793 46.3941 66.8774L46.3958 62.7465V56.9543C46.3942 55.8329 46.3512 54.6969 46.4145 53.5785L35.0869 53.5551C33.5607 53.5545 31.2206 53.7603 29.8051 53.445C28.2955 53.1087 26.7959 52.2982 25.7086 51.1962C25.5755 51.0601 25.4473 50.9195 25.3241 50.7745C25.201 50.6294 25.0831 50.4802 24.9704 50.3269C24.8577 50.1735 24.7505 50.0164 24.6488 49.8556C24.5472 49.6946 24.4513 49.5304 24.3612 49.3628C24.2712 49.1952 24.1871 49.0246 24.1089 48.851C24.0308 48.6775 23.9589 48.5014 23.8931 48.3228C23.8275 48.1443 23.7681 47.9636 23.7151 47.7808C23.662 47.598 23.6154 47.4136 23.5754 47.2275C23.3006 46.0098 23.4441 43.7994 23.4386 42.497C23.4145 39.4451 23.4128 36.3933 23.4334 33.3416C23.4659 30.7518 24.0021 28.8778 25.9109 27.009C26.9064 26.0344 28.0484 25.3668 29.4001 25.0251C31.4934 24.4958 34.4826 24.7169 36.685 24.7162C39.2074 24.7152 41.733 24.6869 44.255 24.7109L44.3763 24.7133C42.317 29.6601 41.9692 34.17 44.0621 39.2004C46.8449 45.8889 52.6129 49.8721 59.1103 52.5179C59.7894 52.7937 60.4705 53.0646 61.1534 53.3307L61.1552 67.3554C61.1596 69.6884 61.2289 72.0431 61.1481 74.3734C62.1676 71.7645 63.2362 69.1759 64.3538 66.6074C65.7598 63.3314 67.3451 60.1116 67.8642 56.5474C67.9649 55.856 67.9781 55.1828 68.0323 54.4908C68.0299 54.3174 68.0173 54.1474 67.9993 53.975C67.6488 50.5933 66.565 48.3705 63.9316 46.2206C62.4631 45.2606 60.9 44.6829 59.2808 44.0423C56.089 42.7797 53.1519 41.2307 50.7489 38.7204C48.3649 36.2302 46.8434 32.8049 46.461 29.3893C46.3463 28.3647 46.3609 27.3461 46.383 26.318Z" fill="#0066FF"/>
<path d="M79.2404 44.5985C79.252 44.4869 79.267 44.4656 79.3266 44.3752L79.4971 44.3564C79.878 46.2568 80.0858 49.8874 78.9896 51.5808C78.9641 51.6203 78.9365 51.6583 78.91 51.697C79.5656 49.3535 79.6852 46.9923 79.2404 44.5985Z" fill="#6F99F3"/>
<path d="M74.8261 34.8232C75.0763 35.0939 75.3184 35.3717 75.5523 35.6567C75.7861 35.9418 76.0114 36.2334 76.228 36.5316C76.4446 36.83 76.6522 37.1344 76.8507 37.445C77.0494 37.7555 77.2387 38.0717 77.4186 38.3935C77.5985 38.7152 77.7689 39.042 77.9295 39.3739C78.0902 39.7057 78.2409 40.0419 78.3816 40.3826C78.5224 40.7234 78.6529 41.0679 78.7733 41.4163C78.8937 41.7648 79.0038 42.1165 79.1034 42.4714C79.2693 43.0677 79.4541 43.7389 79.497 44.3565L79.3265 44.3753C79.2669 44.4656 79.2519 44.4869 79.2403 44.5986C78.9074 42.043 77.7496 39.2587 76.3026 37.1436C75.8368 36.4629 75.2597 35.8683 74.7866 35.1996L74.7251 35.1116L74.8261 34.8232Z" fill="#6F99F3"/>
<path d="M46.383 26.3179C46.7929 31.6513 48.1418 36.1955 52.3502 39.8184C54.677 41.8214 57.4388 42.9735 60.2494 44.1045C61.3382 44.5426 62.5484 44.9383 63.5194 45.6096C65.7316 47.0032 67.3607 49.1489 67.9347 51.7202C68.1366 52.6246 68.2183 53.5777 68.0322 54.4907C68.0299 54.3173 68.0173 54.1473 67.9993 53.9749C67.6488 50.5932 66.565 48.3704 63.9316 46.2205C62.463 45.2605 60.8999 44.6827 59.2808 44.0422C56.089 42.7796 53.1519 41.2306 50.7488 38.7203C48.3649 36.2301 46.8433 32.8047 46.461 29.3892C46.3463 28.3646 46.3608 27.3459 46.383 26.3179Z" fill="#6F99F3"/>
<path d="M61.1427 4.12402C61.2004 9.69635 61.2098 15.2688 61.1708 20.8413L61.1745 24.7012C61.177 25.4144 61.2619 26.2519 61.1243 26.9473C66.0828 28.8561 71.1925 30.7423 74.8262 34.8233L74.7251 35.1117C70.7689 31.0535 66.1049 29.0308 60.8472 27.1617C60.7233 25.7206 60.7935 24.2322 60.7903 22.7846C60.7854 20.5586 60.7476 18.3224 60.8074 16.0974C60.7613 15.0645 60.778 5.54087 60.6725 5.39419L60.4098 5.71152C60.5809 5.16218 60.8714 4.63021 61.1427 4.12402Z" fill="#6F99F3"/>
<path fill-rule="evenodd" clip-rule="evenodd" d="M15.337 97.9778L19.1468 84.3406H16.1966L13.774 94.8714L11.1559 84.3406H8.10808L5.33375 94.93L2.93063 84.3406H0L3.67306 97.9974L6.87722 97.9778L9.55386 88.2677L12.1133 97.9778H15.337ZM30.9165 93.3865C30.9686 93.0739 30.9946 92.7222 30.9946 92.3315C30.9946 91.2765 30.7667 90.3452 30.3108 89.5376C29.868 88.717 29.2363 88.0853 28.4157 87.6425C27.6081 87.1996 26.6899 86.9782 25.6609 86.9782C24.5928 86.9782 23.6485 87.2061 22.8279 87.662C22.0074 88.1179 21.3691 88.7691 20.9133 89.6158C20.4574 90.4624 20.2295 91.4458 20.2295 92.5659C20.2295 93.6731 20.4574 94.6499 20.9133 95.4966C21.3822 96.3432 22.0269 97.001 22.8475 97.4699C23.6811 97.9257 24.6189 98.1537 25.6609 98.1537C26.9504 98.1537 28.038 97.8215 28.9237 97.1573C29.8094 96.48 30.4085 95.6203 30.7211 94.5783H27.7709C27.3411 95.451 26.6182 95.8873 25.6023 95.8873C24.8989 95.8873 24.3063 95.6659 23.8244 95.223C23.3424 94.7802 23.0689 94.168 23.0038 93.3865H30.9165ZM27.3997 89.8698C27.8947 90.2866 28.1487 90.8466 28.1617 91.55H23.0233C23.1275 90.8206 23.4076 90.254 23.8634 89.8502C24.3323 89.4334 24.9054 89.225 25.5827 89.225C26.2991 89.225 26.9048 89.4399 27.3997 89.8698ZM35.7264 97.9778V83.5201H32.9911V97.9778H35.7264ZM42.6099 87.4666C41.9977 87.7923 41.5158 88.2156 41.1641 88.7366V83.5201H38.4288V97.9778H41.1641V96.4344C41.5288 96.9423 42.0107 97.3591 42.6099 97.6848C43.222 97.9974 43.9319 98.1537 44.7395 98.1537C45.6642 98.1537 46.4978 97.9192 47.2403 97.4503C47.9957 96.9814 48.5884 96.3237 49.0182 95.477C49.461 94.6174 49.6825 93.634 49.6825 92.5269C49.6825 91.4197 49.461 90.4494 49.0182 89.6158C48.5884 88.7691 47.9957 88.1179 47.2403 87.662C46.4978 87.2061 45.6642 86.9782 44.7395 86.9782C43.9449 86.9782 43.2351 87.141 42.6099 87.4666ZM46.4783 90.8466C46.7518 91.3155 46.8886 91.8756 46.8886 92.5269C46.8886 93.1911 46.7518 93.7642 46.4783 94.2462C46.2178 94.7281 45.8661 95.0993 45.4233 95.3598C44.9934 95.6203 44.5245 95.7506 44.0166 95.7506C43.5216 95.7506 43.0527 95.6268 42.6099 95.3793C42.18 95.1188 41.8284 94.7476 41.5548 94.2657C41.2943 93.7838 41.1641 93.2172 41.1641 92.5659C41.1641 91.9147 41.2943 91.3481 41.5548 90.8662C41.8284 90.3842 42.18 90.0195 42.6099 89.7721C43.0527 89.5116 43.5216 89.3813 44.0166 89.3813C44.5245 89.3813 44.9934 89.5051 45.4233 89.7525C45.8661 90 46.2178 90.3647 46.4783 90.8466ZM53.6629 97.4699C54.4965 97.9257 55.4343 98.1537 56.4763 98.1537C57.5314 98.1537 58.4822 97.9257 59.3288 97.4699C60.1885 97.001 60.8658 96.3432 61.3607 95.4966C61.8687 94.6499 62.1227 93.6731 62.1227 92.5659C62.1227 91.4588 61.8752 90.4819 61.3803 89.6353C60.8983 88.7887 60.2341 88.1374 59.3874 87.6816C58.5408 87.2126 57.5965 86.9782 56.5545 86.9782C55.5125 86.9782 54.5682 87.2126 53.7215 87.6816C52.8749 88.1374 52.2041 88.7887 51.7092 89.6353C51.443 90.1029 51.2504 90.6101 51.1312 91.1571C51.5776 90.8403 52.1232 90.6541 52.7123 90.6541C53.1915 90.6541 53.642 90.7774 54.0336 90.9939C54.1596 90.6896 54.3291 90.4256 54.5421 90.2019C55.0761 89.6418 55.7339 89.3618 56.5154 89.3618C57.2969 89.3618 57.9547 89.6418 58.4887 90.2019C59.0357 90.7489 59.3093 91.537 59.3093 92.5659C59.3093 93.2563 59.179 93.8424 58.9185 94.3243C58.658 94.8062 58.3063 95.1709 57.8635 95.4184C57.4337 95.6529 56.9713 95.7701 56.4763 95.7701C55.8165 95.7701 55.2496 95.5751 54.7755 95.1852C54.274 95.7608 53.5357 96.1246 52.7123 96.1246C52.4817 96.1246 52.2578 96.0961 52.0439 96.0424C52.4783 96.6312 53.018 97.1071 53.6629 97.4699ZM64.0705 89.6158C63.6407 90.4624 63.4257 91.4328 63.4257 92.5269C63.4257 93.634 63.6407 94.6174 64.0705 95.477C64.5133 96.3237 65.1125 96.9814 65.8679 97.4503C66.6234 97.9192 67.457 98.1537 68.3687 98.1537C69.1763 98.1537 69.8862 97.9909 70.4983 97.6652C71.1105 97.3396 71.5859 96.9098 71.9246 96.3758V97.9778H74.6989V83.5201H71.9246V88.6584C71.5469 88.1505 71.0389 87.7467 70.4006 87.4471C69.7624 87.1345 69.0916 86.9782 68.3883 86.9782C67.4635 86.9782 66.6234 87.2061 65.8679 87.662C65.1125 88.1179 64.5133 88.7691 64.0705 89.6158ZM71.5534 90.8662C71.8139 91.3351 71.9441 91.9017 71.9441 92.5659C71.9441 93.2302 71.8139 93.8033 71.5534 94.2852C71.2929 94.7541 70.9412 95.1188 70.4983 95.3793C70.0555 95.6268 69.5801 95.7506 69.0721 95.7506C68.5771 95.7506 68.1082 95.6203 67.6654 95.3598C67.2356 95.0993 66.8839 94.7281 66.6104 94.2462C66.3499 93.7512 66.2196 93.1781 66.2196 92.5269C66.2196 91.8756 66.3499 91.3155 66.6104 90.8466C66.8839 90.3647 67.2356 90 67.6654 89.7525C68.0952 89.5051 68.5641 89.3813 69.0721 89.3813C69.5801 89.3813 70.0555 89.5116 70.4983 89.7721C70.9412 90.0195 71.2929 90.3842 71.5534 90.8662ZM77.5462 85.4152C77.8718 85.7148 78.2756 85.8646 78.7575 85.8646C79.2395 85.8646 79.6367 85.7148 79.9493 85.4152C80.2749 85.1026 80.4378 84.7184 80.4378 84.2625C80.4378 83.8066 80.2749 83.4289 79.9493 83.1293C79.6367 82.8167 79.2395 82.6604 78.7575 82.6604C78.2756 82.6604 77.8718 82.8167 77.5462 83.1293C77.2336 83.4289 77.0773 83.8066 77.0773 84.2625C77.0773 84.7184 77.2336 85.1026 77.5462 85.4152ZM77.3704 97.9778H80.1056V87.154H77.3704V97.9778ZM96.8806 90.6122C97.2323 89.974 97.4081 89.2901 97.4081 88.5607C97.4081 87.7532 97.2192 87.0303 96.8415 86.3921C96.4768 85.7538 95.9232 85.2524 95.1808 84.8877C94.4384 84.523 93.5397 84.3406 92.4846 84.3406H87.4635V97.9778H90.1988V92.7418H92.4846C93.6048 92.7418 94.5296 92.5464 95.259 92.1556C96.0014 91.7649 96.5419 91.2504 96.8806 90.6122ZM94.0476 90.0261C93.6829 90.3647 93.1229 90.534 92.3674 90.534H90.1988V86.5679H92.3674C93.8523 86.5679 94.5947 87.2322 94.5947 88.5607C94.5947 89.1859 94.4123 89.6744 94.0476 90.0261ZM99.2915 89.6158C98.8617 90.4624 98.6467 91.4328 98.6467 92.5269C98.6467 93.634 98.8617 94.6174 99.2915 95.477C99.7343 96.3237 100.327 96.9814 101.069 97.4503C101.825 97.9192 102.658 98.1537 103.57 98.1537C104.378 98.1537 105.088 97.9909 105.7 97.6652C106.325 97.3266 106.813 96.9033 107.165 96.3953V97.9778H109.92V87.154H107.165V88.6975C106.8 88.2026 106.312 87.7923 105.7 87.4666C105.101 87.141 104.397 86.9782 103.59 86.9782C102.665 86.9782 101.825 87.2061 101.069 87.662C100.327 88.1179 99.7343 88.7691 99.2915 89.6158ZM106.774 90.8662C107.035 91.3351 107.165 91.9017 107.165 92.5659C107.165 93.2302 107.035 93.8033 106.774 94.2852C106.514 94.7541 106.162 95.1188 105.719 95.3793C105.276 95.6268 104.801 95.7506 104.293 95.7506C103.798 95.7506 103.329 95.6203 102.886 95.3598C102.457 95.0993 102.105 94.7281 101.831 94.2462C101.571 93.7512 101.441 93.1781 101.441 92.5269C101.441 91.8756 101.571 91.3155 101.831 90.8466C102.105 90.3647 102.457 90 102.886 89.7525C103.316 89.5051 103.785 89.3813 104.293 89.3813C104.801 89.3813 105.276 89.5116 105.719 89.7721C106.162 90.0195 106.514 90.3842 106.774 90.8662ZM112.533 89.6158C112.103 90.4624 111.888 91.4328 111.888 92.5269C111.888 93.634 112.103 94.6174 112.533 95.477C112.976 96.3237 113.575 96.9814 114.33 97.4503C115.086 97.9192 115.919 98.1537 116.831 98.1537C117.639 98.1537 118.348 97.9909 118.961 97.6652C119.573 97.3396 120.048 96.9098 120.387 96.3758V97.9778H123.161V83.5201H120.387V88.6584C120.009 88.1505 119.501 87.7467 118.863 87.4471C118.225 87.1345 117.554 86.9782 116.851 86.9782C115.926 86.9782 115.086 87.2061 114.33 87.662C113.575 88.1179 112.976 88.7691 112.533 89.6158ZM120.016 90.8662C120.276 91.3351 120.406 91.9017 120.406 92.5659C120.406 93.2302 120.276 93.8033 120.016 94.2852C119.755 94.7541 119.403 95.1188 118.961 95.3793C118.518 95.6268 118.042 95.7506 117.534 95.7506C117.039 95.7506 116.571 95.6203 116.128 95.3598C115.698 95.0993 115.346 94.7281 115.073 94.2462C114.812 93.7512 114.682 93.1781 114.682 92.5269C114.682 91.8756 114.812 91.3155 115.073 90.8466C115.346 90.3647 115.698 90 116.128 89.7525C116.557 89.5051 117.026 89.3813 117.534 89.3813C118.042 89.3813 118.518 89.5116 118.961 89.7721C119.403 90.0195 119.755 90.3842 120.016 90.8662ZM126.008 85.4152C126.334 85.7148 126.738 85.8646 127.22 85.8646C127.702 85.8646 128.099 85.7148 128.412 85.4152C128.737 85.1026 128.9 84.7184 128.9 84.2625C128.9 83.8066 128.737 83.4289 128.412 83.1293C128.099 82.8167 127.702 82.6604 127.22 82.6604C126.738 82.6604 126.334 82.8167 126.008 83.1293C125.696 83.4289 125.54 83.8066 125.54 84.2625C125.54 84.7184 125.696 85.1026 126.008 85.4152ZM125.833 97.9778H128.568V87.154H125.833V97.9778Z" fill="#0066FF"/>
<path d="M13.6529 101.112L12.2337 103.825V105.469H11.6647V103.825L10.2393 101.112H10.8707L11.9461 103.319L13.0214 101.112H13.6529ZM15.7472 105.526C15.4263 105.526 15.1345 105.453 14.8719 105.307C14.6135 105.161 14.4093 104.954 14.2592 104.688C14.1133 104.417 14.0404 104.104 14.0404 103.75C14.0404 103.4 14.1154 103.091 14.2655 102.825C14.4197 102.554 14.6281 102.347 14.8907 102.206C15.1533 102.06 15.4471 101.987 15.7722 101.987C16.0973 101.987 16.3912 102.06 16.6537 102.206C16.9163 102.347 17.1226 102.552 17.2727 102.818C17.4269 103.085 17.504 103.396 17.504 103.75C17.504 104.104 17.4248 104.417 17.2664 104.688C17.1122 104.954 16.9017 105.161 16.635 105.307C16.3682 105.453 16.0723 105.526 15.7472 105.526ZM15.7472 105.025C15.9514 105.025 16.1432 104.977 16.3224 104.882C16.5016 104.786 16.6454 104.642 16.7538 104.45C16.8663 104.258 16.9226 104.025 16.9226 103.75C16.9226 103.475 16.8684 103.241 16.76 103.05C16.6517 102.858 16.5099 102.716 16.3349 102.625C16.1598 102.529 15.9702 102.481 15.766 102.481C15.5576 102.481 15.3658 102.529 15.1908 102.625C15.0199 102.716 14.8823 102.858 14.7781 103.05C14.6739 103.241 14.6218 103.475 14.6218 103.75C14.6218 104.029 14.6719 104.265 14.7719 104.456C14.8761 104.648 15.0136 104.792 15.1845 104.888C15.3554 104.979 15.543 105.025 15.7472 105.025ZM21.2905 102.043V105.469H20.7216V104.963C20.6132 105.138 20.4611 105.275 20.2652 105.375C20.0735 105.471 19.8609 105.519 19.6275 105.519C19.3607 105.519 19.1211 105.465 18.9085 105.357C18.696 105.244 18.5271 105.077 18.4021 104.857C18.2812 104.636 18.2208 104.367 18.2208 104.05V102.043H18.7835V103.975C18.7835 104.313 18.8689 104.573 19.0398 104.757C19.2107 104.936 19.4441 105.025 19.74 105.025C20.0443 105.025 20.284 104.932 20.459 104.744C20.6341 104.556 20.7216 104.283 20.7216 103.925V102.043H21.2905ZM22.8201 102.6C22.9201 102.404 23.0618 102.252 23.2452 102.143C23.4328 102.035 23.6599 101.981 23.9267 101.981V102.568H23.7766C23.1389 102.568 22.8201 102.914 22.8201 103.606V105.469H22.2512V102.043H22.8201V102.6ZM29.6076 101.112V105.469H29.0386V103.494H26.8192V105.469H26.2502V101.112H26.8192V103.025H29.0386V101.112H29.6076ZM33.705 103.625C33.705 103.733 33.6988 103.848 33.6863 103.969H30.9479C30.9687 104.306 31.0834 104.571 31.2918 104.763C31.5043 104.95 31.7607 105.044 32.0608 105.044C32.3067 105.044 32.5109 104.988 32.6735 104.875C32.8402 104.759 32.9569 104.604 33.0236 104.413H33.6363C33.5446 104.742 33.3612 105.011 33.0861 105.219C32.811 105.423 32.4692 105.526 32.0608 105.526C31.7357 105.526 31.4439 105.453 31.1855 105.307C30.9312 105.161 30.7312 104.954 30.5853 104.688C30.4394 104.417 30.3665 104.104 30.3665 103.75C30.3665 103.396 30.4373 103.085 30.579 102.818C30.7207 102.552 30.9187 102.347 31.173 102.206C31.4314 102.06 31.7273 101.987 32.0608 101.987C32.3859 101.987 32.6735 102.058 32.9235 102.199C33.1736 102.341 33.3653 102.537 33.4987 102.787C33.6363 103.033 33.705 103.312 33.705 103.625ZM33.1173 103.506C33.1173 103.289 33.0694 103.104 32.9736 102.95C32.8777 102.791 32.7464 102.673 32.5797 102.593C32.4171 102.51 32.2358 102.468 32.0357 102.468C31.7482 102.468 31.5022 102.56 31.298 102.743C31.0979 102.927 30.9833 103.181 30.9541 103.506H33.1173ZM34.2434 103.744C34.2434 103.394 34.3143 103.087 34.456 102.825C34.5977 102.558 34.7915 102.352 35.0374 102.206C35.2875 102.06 35.5647 101.987 35.869 101.987C36.1691 101.987 36.4296 102.051 36.6505 102.181C36.8714 102.31 37.036 102.472 37.1444 102.668V102.043H37.7196V105.469H37.1444V104.832C37.0318 105.032 36.863 105.198 36.638 105.332C36.4171 105.461 36.1586 105.526 35.8627 105.526C35.5584 105.526 35.2834 105.45 35.0374 105.3C34.7915 105.15 34.5977 104.94 34.456 104.669C34.3143 104.398 34.2434 104.09 34.2434 103.744ZM37.1444 103.75C37.1444 103.492 37.0923 103.266 36.9881 103.075C36.8839 102.883 36.7422 102.737 36.5629 102.637C36.3879 102.533 36.1941 102.481 35.9815 102.481C35.7689 102.481 35.5751 102.531 35.4001 102.631C35.225 102.731 35.0854 102.877 34.9812 103.068C34.877 103.26 34.8249 103.485 34.8249 103.744C34.8249 104.006 34.877 104.236 34.9812 104.431C35.0854 104.623 35.225 104.771 35.4001 104.875C35.5751 104.975 35.7689 105.025 35.9815 105.025C36.1941 105.025 36.3879 104.975 36.5629 104.875C36.7422 104.771 36.8839 104.623 36.9881 104.431C37.0923 104.236 37.1444 104.008 37.1444 103.75ZM39.2499 100.843V105.469H38.681V100.843H39.2499ZM40.9136 102.512V104.531C40.9136 104.698 40.949 104.817 41.0198 104.888C41.0907 104.954 41.2137 104.988 41.3887 104.988H41.8076V105.469H41.2949C40.9782 105.469 40.7406 105.396 40.5822 105.25C40.4238 105.105 40.3446 104.865 40.3446 104.531V102.512H39.9007V102.043H40.3446V101.18H40.9136V102.043H41.8076V102.512H40.9136ZM44.1975 101.981C44.4559 101.981 44.6893 102.037 44.8977 102.149C45.1061 102.258 45.2687 102.422 45.3854 102.643C45.5062 102.864 45.5667 103.133 45.5667 103.45V105.469H45.004V103.531C45.004 103.189 44.9185 102.929 44.7477 102.75C44.5768 102.566 44.3434 102.475 44.0474 102.475C43.7473 102.475 43.5077 102.568 43.3284 102.756C43.1534 102.943 43.0659 103.216 43.0659 103.575V105.469H42.4969V100.843H43.0659V102.531C43.1784 102.356 43.3326 102.22 43.5285 102.124C43.7286 102.029 43.9516 101.981 44.1975 101.981ZM47.0837 104.681L46.3835 106.363H46.0021L46.4585 104.681H47.0837ZM50.7839 105.513C50.4963 105.513 50.2379 105.463 50.0087 105.363C49.7836 105.259 49.6065 105.117 49.4773 104.938C49.3481 104.754 49.2814 104.544 49.2772 104.306H49.8836C49.9045 104.511 49.9878 104.684 50.1337 104.825C50.2838 104.963 50.5005 105.032 50.7839 105.032C51.0549 105.032 51.2674 104.965 51.4216 104.832C51.58 104.694 51.6592 104.519 51.6592 104.306C51.6592 104.14 51.6134 104.004 51.5217 103.9C51.43 103.796 51.3154 103.717 51.1778 103.662C51.0403 103.608 50.8548 103.55 50.6214 103.487C50.3338 103.412 50.1025 103.337 49.9274 103.262C49.7565 103.187 49.6086 103.071 49.4835 102.912C49.3626 102.75 49.3022 102.533 49.3022 102.262C49.3022 102.024 49.3626 101.814 49.4835 101.631C49.6044 101.447 49.7732 101.305 49.9899 101.205C50.2108 101.105 50.463 101.055 50.7464 101.055C51.1549 101.055 51.4883 101.157 51.7467 101.362C52.0093 101.566 52.1573 101.837 52.1906 102.174H51.5654C51.5446 102.008 51.4571 101.862 51.3028 101.737C51.1486 101.608 50.9444 101.543 50.6902 101.543C50.4526 101.543 50.2588 101.605 50.1087 101.731C49.9587 101.851 49.8836 102.022 49.8836 102.243C49.8836 102.402 49.9274 102.531 50.0149 102.631C50.1066 102.731 50.2171 102.808 50.3463 102.862C50.4797 102.912 50.6651 102.971 50.9027 103.037C51.1903 103.116 51.4216 103.196 51.5967 103.275C51.7717 103.35 51.9218 103.469 52.0468 103.631C52.1719 103.79 52.2344 104.006 52.2344 104.281C52.2344 104.494 52.1781 104.694 52.0656 104.882C51.9531 105.069 51.7863 105.221 51.5654 105.338C51.3445 105.455 51.084 105.513 50.7839 105.513ZM56.1976 103.625C56.1976 103.733 56.1914 103.848 56.1789 103.969H53.4405C53.4613 104.306 53.576 104.571 53.7844 104.763C53.9969 104.95 54.2533 105.044 54.5534 105.044C54.7993 105.044 55.0035 104.988 55.1661 104.875C55.3328 104.759 55.4495 104.604 55.5162 104.413H56.1289C56.0372 104.742 55.8538 105.011 55.5787 105.219C55.3036 105.423 54.9618 105.526 54.5534 105.526C54.2282 105.526 53.9365 105.453 53.6781 105.307C53.4238 105.161 53.2238 104.954 53.0779 104.688C52.932 104.417 52.8591 104.104 52.8591 103.75C52.8591 103.396 52.9299 103.085 53.0716 102.818C53.2133 102.552 53.4113 102.347 53.6656 102.206C53.924 102.06 54.2199 101.987 54.5534 101.987C54.8785 101.987 55.1661 102.058 55.4161 102.199C55.6662 102.341 55.8579 102.537 55.9913 102.787C56.1289 103.033 56.1976 103.312 56.1976 103.625ZM55.6099 103.506C55.6099 103.289 55.562 103.104 55.4661 102.95C55.3703 102.791 55.239 102.673 55.0723 102.593C54.9097 102.51 54.7284 102.468 54.5283 102.468C54.2408 102.468 53.9948 102.56 53.7906 102.743C53.5905 102.927 53.4759 103.181 53.4467 103.506H55.6099ZM56.736 103.75C56.736 103.396 56.8069 103.087 56.9486 102.825C57.0903 102.558 57.2862 102.352 57.5363 102.206C57.7905 102.06 58.0802 101.987 58.4053 101.987C58.8263 101.987 59.1722 102.089 59.4432 102.293C59.7183 102.497 59.8996 102.781 59.9871 103.143H59.3744C59.316 102.935 59.2014 102.77 59.0305 102.65C58.8638 102.529 58.6554 102.468 58.4053 102.468C58.0802 102.468 57.8176 102.581 57.6176 102.806C57.4175 103.027 57.3175 103.341 57.3175 103.75C57.3175 104.163 57.4175 104.481 57.6176 104.706C57.8176 104.932 58.0802 105.044 58.4053 105.044C58.6554 105.044 58.8638 104.986 59.0305 104.869C59.1973 104.752 59.3119 104.586 59.3744 104.369H59.9871C59.8954 104.719 59.712 105 59.4369 105.213C59.1618 105.421 58.818 105.526 58.4053 105.526C58.0802 105.526 57.7905 105.453 57.5363 105.307C57.2862 105.161 57.0903 104.954 56.9486 104.688C56.8069 104.421 56.736 104.108 56.736 103.75ZM63.7847 102.043V105.469H63.2158V104.963C63.1074 105.138 62.9553 105.275 62.7594 105.375C62.5676 105.471 62.3551 105.519 62.1217 105.519C61.8549 105.519 61.6153 105.465 61.4027 105.357C61.1901 105.244 61.0213 105.077 60.8963 104.857C60.7754 104.636 60.715 104.367 60.715 104.05V102.043H61.2776V103.975C61.2776 104.313 61.3631 104.573 61.534 104.757C61.7049 104.936 61.9383 105.025 62.2342 105.025C62.5385 105.025 62.7781 104.932 62.9532 104.744C63.1282 104.556 63.2158 104.283 63.2158 103.925V102.043H63.7847ZM65.3142 102.6C65.4143 102.404 65.556 102.252 65.7394 102.143C65.9269 102.035 66.1541 101.981 66.4209 101.981V102.568H66.2708C65.6331 102.568 65.3142 102.914 65.3142 103.606V105.469H64.7453V102.043H65.3142V102.6ZM70.2036 103.625C70.2036 103.733 70.1974 103.848 70.1849 103.969H67.4465C67.4673 104.306 67.5819 104.571 67.7903 104.763C68.0029 104.95 68.2592 105.044 68.5593 105.044C68.8052 105.044 69.0095 104.988 69.172 104.875C69.3388 104.759 69.4555 104.604 69.5221 104.413H70.1348C70.0431 104.742 69.8598 105.011 69.5847 105.219C69.3096 105.423 68.9678 105.526 68.5593 105.526C68.2342 105.526 67.9425 105.453 67.6841 105.307C67.4298 105.161 67.2297 104.954 67.0839 104.688C66.938 104.417 66.865 104.104 66.865 103.75C66.865 103.396 66.9359 103.085 67.0776 102.818C67.2193 102.552 67.4173 102.347 67.6715 102.206C67.93 102.06 68.2259 101.987 68.5593 101.987C68.8844 101.987 69.172 102.058 69.4221 102.199C69.6722 102.341 69.8639 102.537 69.9973 102.787C70.1348 103.033 70.2036 103.312 70.2036 103.625ZM69.6159 103.506C69.6159 103.289 69.568 103.104 69.4721 102.95C69.3763 102.791 69.245 102.673 69.0783 102.593C68.9157 102.51 68.7344 102.468 68.5343 102.468C68.2467 102.468 68.0008 102.56 67.7966 102.743C67.5965 102.927 67.4819 103.181 67.4527 103.506H69.6159ZM71.5235 100.843V105.469H70.9546V100.843H71.5235ZM75.4441 102.043L73.381 107.082H72.7933L73.4685 105.432L72.0868 102.043H72.7182L73.7936 104.819L74.8564 102.043H75.4441ZM77.4703 103.287C77.4703 102.862 77.5661 102.481 77.7579 102.143C77.9496 101.801 78.2101 101.535 78.5394 101.343C78.8728 101.151 79.2417 101.055 79.646 101.055C80.1211 101.055 80.5358 101.17 80.8901 101.399C81.2444 101.628 81.5028 101.954 81.6654 102.374H80.9839C80.863 102.112 80.688 101.91 80.4587 101.768C80.2337 101.626 79.9627 101.555 79.646 101.555C79.3417 101.555 79.0687 101.626 78.8269 101.768C78.5852 101.91 78.3956 102.112 78.258 102.374C78.1205 102.633 78.0517 102.937 78.0517 103.287C78.0517 103.633 78.1205 103.937 78.258 104.2C78.3956 104.458 78.5852 104.659 78.8269 104.8C79.0687 104.942 79.3417 105.013 79.646 105.013C79.9627 105.013 80.2337 104.944 80.4587 104.807C80.688 104.665 80.863 104.463 80.9839 104.2H81.6654C81.5028 104.617 81.2444 104.94 80.8901 105.169C80.5358 105.394 80.1211 105.507 79.646 105.507C79.2417 105.507 78.8728 105.413 78.5394 105.225C78.2101 105.034 77.9496 104.769 77.7579 104.431C77.5661 104.094 77.4703 103.712 77.4703 103.287ZM84.0065 105.526C83.6856 105.526 83.3938 105.453 83.1312 105.307C82.8728 105.161 82.6686 104.954 82.5185 104.688C82.3726 104.417 82.2997 104.104 82.2997 103.75C82.2997 103.4 82.3747 103.091 82.5248 102.825C82.679 102.554 82.8874 102.347 83.15 102.206C83.4126 102.06 83.7064 101.987 84.0315 101.987C84.3566 101.987 84.6505 102.06 84.913 102.206C85.1756 102.347 85.3819 102.552 85.532 102.818C85.6862 103.085 85.7633 103.396 85.7633 103.75C85.7633 104.104 85.6841 104.417 85.5257 104.688C85.3715 104.954 85.161 105.161 84.8943 105.307C84.6275 105.453 84.3316 105.526 84.0065 105.526ZM84.0065 105.025C84.2107 105.025 84.4025 104.977 84.5817 104.882C84.7609 104.786 84.9047 104.642 85.0131 104.45C85.1256 104.258 85.1819 104.025 85.1819 103.75C85.1819 103.475 85.1277 103.241 85.0193 103.05C84.911 102.858 84.7692 102.716 84.5942 102.625C84.4191 102.529 84.2295 102.481 84.0253 102.481C83.8169 102.481 83.6251 102.529 83.4501 102.625C83.2792 102.716 83.1416 102.858 83.0374 103.05C82.9332 103.241 82.8811 103.475 82.8811 103.75C82.8811 104.029 82.9312 104.265 83.0312 104.456C83.1354 104.648 83.2729 104.792 83.4438 104.888C83.6147 104.979 83.8023 105.025 84.0065 105.025ZM88.1806 101.981C88.5974 101.981 88.9351 102.108 89.1935 102.362C89.4519 102.612 89.5811 102.975 89.5811 103.45V105.469H89.0184V103.531C89.0184 103.189 88.933 102.929 88.7621 102.75C88.5912 102.566 88.3578 102.475 88.0619 102.475C87.7618 102.475 87.5221 102.568 87.3429 102.756C87.1678 102.943 87.0803 103.216 87.0803 103.575V105.469H86.5114V102.043H87.0803V102.531C87.1928 102.356 87.345 102.22 87.5367 102.124C87.7326 102.029 87.9472 101.981 88.1806 101.981ZM92.1797 101.981C92.5965 101.981 92.9341 102.108 93.1926 102.362C93.451 102.612 93.5802 102.975 93.5802 103.45V105.469H93.0175V103.531C93.0175 103.189 92.9321 102.929 92.7612 102.75C92.5903 102.566 92.3569 102.475 92.0609 102.475C91.7609 102.475 91.5212 102.568 91.342 102.756C91.1669 102.943 91.0794 103.216 91.0794 103.575V105.469H90.5105V102.043H91.0794V102.531C91.1919 102.356 91.3441 102.22 91.5358 102.124C91.7317 102.029 91.9463 101.981 92.1797 101.981ZM97.6355 103.625C97.6355 103.733 97.6293 103.848 97.6168 103.969H94.8784C94.8993 104.306 95.0139 104.571 95.2223 104.763C95.4348 104.95 95.6912 105.044 95.9913 105.044C96.2372 105.044 96.4414 104.988 96.604 104.875C96.7707 104.759 96.8874 104.604 96.9541 104.413H97.5668C97.4751 104.742 97.2917 105.011 97.0166 105.219C96.7415 105.423 96.3997 105.526 95.9913 105.526C95.6662 105.526 95.3744 105.453 95.116 105.307C94.8617 105.161 94.6617 104.954 94.5158 104.688C94.3699 104.417 94.297 104.104 94.297 103.75C94.297 103.396 94.3678 103.085 94.5095 102.818C94.6513 102.552 94.8492 102.347 95.1035 102.206C95.3619 102.06 95.6578 101.987 95.9913 101.987C96.3164 101.987 96.604 102.058 96.854 102.199C97.1041 102.341 97.2959 102.537 97.4292 102.787C97.5668 103.033 97.6355 103.312 97.6355 103.625ZM97.0479 103.506C97.0479 103.289 96.9999 103.104 96.9041 102.95C96.8082 102.791 96.6769 102.673 96.5102 102.593C96.3476 102.51 96.1663 102.468 95.9663 102.468C95.6787 102.468 95.4328 102.56 95.2285 102.743C95.0285 102.927 94.9138 103.181 94.8847 103.506H97.0479ZM98.174 103.75C98.174 103.396 98.2448 103.087 98.3865 102.825C98.5282 102.558 98.7241 102.352 98.9742 102.206C99.2285 102.06 99.5181 101.987 99.8432 101.987C100.264 101.987 100.61 102.089 100.881 102.293C101.156 102.497 101.337 102.781 101.425 103.143H100.812C100.754 102.935 100.639 102.77 100.468 102.65C100.302 102.529 100.093 102.468 99.8432 102.468C99.5181 102.468 99.2556 102.581 99.0555 102.806C98.8554 103.027 98.7554 103.341 98.7554 103.75C98.7554 104.163 98.8554 104.481 99.0555 104.706C99.2556 104.932 99.5181 105.044 99.8432 105.044C100.093 105.044 100.302 104.986 100.468 104.869C100.635 104.752 100.75 104.586 100.812 104.369H101.425C101.333 104.719 101.15 105 100.875 105.213C100.6 105.421 100.256 105.526 99.8432 105.526C99.5181 105.526 99.2285 105.453 98.9742 105.307C98.7241 105.161 98.5282 104.954 98.3865 104.688C98.2448 104.421 98.174 104.108 98.174 103.75ZM102.878 102.512V104.531C102.878 104.698 102.914 104.817 102.984 104.888C103.055 104.954 103.178 104.988 103.353 104.988H103.772V105.469H103.259C102.943 105.469 102.705 105.396 102.547 105.25C102.388 105.105 102.309 104.865 102.309 104.531V102.512H101.865V102.043H102.309V101.18H102.878V102.043H103.772V102.512H102.878ZM107.587 103.625C107.587 103.733 107.581 103.848 107.569 103.969H104.83C104.851 104.306 104.966 104.571 105.174 104.763C105.387 104.95 105.643 105.044 105.943 105.044C106.189 105.044 106.393 104.988 106.556 104.875C106.723 104.759 106.839 104.604 106.906 104.413H107.519C107.427 104.742 107.244 105.011 106.969 105.219C106.693 105.423 106.352 105.526 105.943 105.526C105.618 105.526 105.326 105.453 105.068 105.307C104.814 105.161 104.614 104.954 104.468 104.688C104.322 104.417 104.249 104.104 104.249 103.75C104.249 103.396 104.32 103.085 104.461 102.818C104.603 102.552 104.801 102.347 105.055 102.206C105.314 102.06 105.61 101.987 105.943 101.987C106.268 101.987 106.556 102.058 106.806 102.199C107.056 102.341 107.248 102.537 107.381 102.787C107.519 103.033 107.587 103.312 107.587 103.625ZM107 103.506C107 103.289 106.952 103.104 106.856 102.95C106.76 102.791 106.629 102.673 106.462 102.593C106.3 102.51 106.118 102.468 105.918 102.468C105.631 102.468 105.385 102.56 105.18 102.743C104.98 102.927 104.866 103.181 104.837 103.506H107ZM108.126 103.744C108.126 103.394 108.197 103.087 108.338 102.825C108.48 102.558 108.674 102.352 108.92 102.206C109.17 102.06 109.449 101.987 109.758 101.987C110.024 101.987 110.272 102.049 110.502 102.174C110.731 102.295 110.906 102.456 111.027 102.656V100.843H111.602V105.469H111.027V104.825C110.914 105.03 110.748 105.198 110.527 105.332C110.306 105.461 110.047 105.526 109.751 105.526C109.447 105.526 109.17 105.45 108.92 105.3C108.674 105.15 108.48 104.94 108.338 104.669C108.197 104.398 108.126 104.09 108.126 103.744ZM111.027 103.75C111.027 103.492 110.975 103.266 110.871 103.075C110.766 102.883 110.625 102.737 110.445 102.637C110.27 102.533 110.077 102.481 109.864 102.481C109.651 102.481 109.458 102.531 109.283 102.631C109.107 102.731 108.968 102.877 108.864 103.068C108.759 103.26 108.707 103.485 108.707 103.744C108.707 104.006 108.759 104.236 108.864 104.431C108.968 104.623 109.107 104.771 109.283 104.875C109.458 104.975 109.651 105.025 109.864 105.025C110.077 105.025 110.27 104.975 110.445 104.875C110.625 104.771 110.766 104.623 110.871 104.431C110.975 104.236 111.027 104.008 111.027 103.75Z" fill="black"/>
</svg>
